<svg width="8" height="8" viewBox="0 0 8 8" fill="none" xmlns="http://www.w3.org/2000/svg">
<g clip-path="url(#clip0_1537_20)">
<path d="M0.493877 0.084372C0.388749 0.084372 0.28362 0.124117 0.204133 0.204886C0.0438767 0.365142 0.0438767 0.625396 0.204133 0.785653L6.51407 7.09508H1.76919C1.54227 7.09508 1.35894 7.27841 1.35894 7.50533C1.35894 7.73226 1.54227 7.91559 1.76919 7.91559H7.5051C7.67048 7.91559 7.82048 7.81559 7.88458 7.66174C7.94869 7.5079 7.91279 7.33226 7.79612 7.21431L0.784902 0.203604C0.704133 0.124117 0.599005 0.084372 0.493877 0.084372Z" fill="white"/>
<path d="M7.50474 1.36943C7.27782 1.36943 7.09448 1.55277 7.09448 1.77969V7.50533C7.09448 7.73226 7.27782 7.91559 7.50474 7.91559C7.73166 7.91559 7.915 7.73226 7.915 7.50533V1.77969C7.915 1.55277 7.73166 1.36943 7.50474 1.36943Z" fill="white"/>
</g>
<defs>
<clipPath id="clip0_1537_20">
<rect width="8" height="8" fill="white" transform="matrix(1 0 0 -1 0 8)"/>
</clipPath>
</defs>
</svg>
