<svg width="264" height="69" viewBox="0 0 264 69" fill="none" xmlns="http://www.w3.org/2000/svg">
<path d="M16.6894 56.4935C13.7841 56.4935 11.2851 55.878 9.19225 54.6469C7.11176 53.4035 5.51138 51.68 4.39111 49.4764C3.28316 47.2728 2.72918 44.7369 2.72918 41.8685C2.72918 38.9632 3.28931 36.4149 4.40958 34.2236C5.54216 32.02 7.14869 30.3027 9.22918 29.0716C11.3097 27.8282 13.7841 27.2066 16.6525 27.2066C19.1269 27.2066 21.2936 27.6559 23.1525 28.5546C25.0114 29.4532 26.4825 30.7151 27.5658 32.3401C28.6492 33.9651 29.2462 35.8732 29.357 38.0645H21.9337C21.7244 36.6488 21.1705 35.5101 20.2718 34.6483C19.3854 33.7743 18.2221 33.3372 16.7817 33.3372C15.563 33.3372 14.4981 33.6696 13.5871 34.3344C12.6885 34.9869 11.9868 35.9409 11.482 37.1966C10.9773 38.4523 10.7249 39.9727 10.7249 41.7577C10.7249 43.5674 10.9711 45.1062 11.4636 46.3742C11.9683 47.6422 12.6762 48.6085 13.5871 49.2733C14.4981 49.9381 15.563 50.2705 16.7817 50.2705C17.6804 50.2705 18.4868 50.0858 19.2008 49.7165C19.9271 49.3472 20.5242 48.8117 20.992 48.11C21.4721 47.396 21.786 46.5404 21.9337 45.5432H29.357C29.2339 47.7099 28.643 49.618 27.5843 51.2676C26.5379 52.9049 25.0914 54.1853 23.2448 55.1085C21.3982 56.0318 19.2131 56.4935 16.6894 56.4935ZM40.7001 18.1213V55.9395H32.8336V18.1213H40.7001ZM45.4416 55.9395V27.5759H53.308V55.9395H45.4416ZM49.3933 23.9196C48.2238 23.9196 47.2205 23.5318 46.3833 22.7563C45.5585 21.9684 45.1461 21.0266 45.1461 19.931C45.1461 18.8477 45.5585 17.9182 46.3833 17.1426C47.2205 16.3548 48.2238 15.9608 49.3933 15.9608C50.5628 15.9608 51.5599 16.3548 52.3848 17.1426C53.2219 17.9182 53.6404 18.8477 53.6404 19.931C53.6404 21.0266 53.2219 21.9684 52.3848 22.7563C51.5599 23.5318 50.5628 23.9196 49.3933 23.9196ZM70.9757 56.4935C68.0581 56.4935 65.5467 55.9026 63.4416 54.7208C61.3488 53.5266 59.7361 51.8401 58.6035 49.6611C57.4709 47.4698 56.9046 44.8784 56.9046 41.887C56.9046 38.9693 57.4709 36.4087 58.6035 34.2051C59.7361 32.0015 61.3303 30.2842 63.3862 29.0531C65.4544 27.8221 67.8796 27.2066 70.6618 27.2066C72.533 27.2066 74.2749 27.5082 75.8876 28.1114C77.5126 28.7023 78.9283 29.5948 80.1348 30.7889C81.3535 31.9831 82.3014 33.485 82.9785 35.2946C83.6556 37.092 83.9941 39.1971 83.9941 41.61V43.7705H60.0439V38.8955H76.5893C76.5893 37.7629 76.3431 36.7596 75.8507 35.8855C75.3582 35.0115 74.675 34.3282 73.801 33.8358C72.9392 33.3311 71.9359 33.0787 70.791 33.0787C69.5969 33.0787 68.5382 33.3557 67.6149 33.9097C66.7039 34.4514 65.9899 35.1838 65.4728 36.1071C64.9558 37.0181 64.6911 38.0337 64.6788 39.154V43.7889C64.6788 45.1924 64.9373 46.4049 65.4544 47.4267C65.9837 48.4485 66.7285 49.2364 67.6887 49.7904C68.649 50.3443 69.7877 50.6213 71.1049 50.6213C71.979 50.6213 72.7792 50.4982 73.5055 50.252C74.2318 50.0058 74.8535 49.6365 75.3706 49.1441C75.8876 48.6516 76.2815 48.0484 76.5524 47.3344L83.8279 47.8145C83.4586 49.5626 82.7015 51.0891 81.5566 52.3941C80.4241 53.6867 78.9591 54.6961 77.1618 55.4225C75.3767 56.1365 73.3147 56.4935 70.9757 56.4935ZM95.4341 39.5418V55.9395H87.5677V27.5759H95.0648V32.5801H95.3972C96.0251 30.9305 97.0776 29.6256 98.5549 28.6654C100.032 27.6928 101.823 27.2066 103.928 27.2066C105.898 27.2066 107.615 27.6374 109.08 28.4992C110.545 29.3609 111.684 30.592 112.497 32.1924C113.309 33.7804 113.715 35.6763 113.715 37.8799V55.9395H105.849V39.2833C105.861 37.5475 105.418 36.1933 104.519 35.2208C103.621 34.2359 102.383 33.7435 100.808 33.7435C99.749 33.7435 98.8134 33.9712 98.0009 34.4267C97.2007 34.8822 96.5729 35.547 96.1174 36.421C95.6742 37.2828 95.4465 38.323 95.4341 39.5418ZM133.442 27.5759V33.485H116.361V27.5759H133.442ZM120.239 20.7804H128.105V47.2236C128.105 47.9499 128.216 48.5162 128.438 48.9225C128.659 49.3164 128.967 49.5934 129.361 49.7534C129.767 49.9135 130.235 49.9935 130.764 49.9935C131.134 49.9935 131.503 49.9627 131.872 49.9012C132.242 49.8273 132.525 49.7719 132.722 49.735L133.959 55.5887C133.565 55.7118 133.011 55.8533 132.297 56.0134C131.583 56.1857 130.715 56.2904 129.693 56.3273C127.798 56.4012 126.136 56.1488 124.708 55.5702C123.292 54.9916 122.19 54.0929 121.402 52.8742C120.614 51.6554 120.227 50.1166 120.239 48.2577V20.7804ZM162.734 27.5759V33.485H145.229V27.5759H162.734ZM149.236 55.9395V25.5262C149.236 23.4703 149.636 21.7653 150.436 20.4111C151.248 19.0569 152.356 18.0413 153.76 17.3642C155.163 16.6871 156.757 16.3486 158.542 16.3486C159.749 16.3486 160.851 16.4409 161.848 16.6256C162.857 16.8103 163.608 16.9764 164.101 17.1242L162.697 23.0333C162.39 22.9348 162.008 22.8424 161.552 22.7563C161.109 22.6701 160.654 22.627 160.186 22.627C159.029 22.627 158.222 22.8978 157.767 23.4395C157.311 23.9689 157.084 24.7137 157.084 25.6739V55.9395H149.236ZM165.98 55.9395V27.5759H173.846V55.9395H165.98ZM169.932 23.9196C168.762 23.9196 167.759 23.5318 166.922 22.7563C166.097 21.9684 165.685 21.0266 165.685 19.931C165.685 18.8477 166.097 17.9182 166.922 17.1426C167.759 16.3548 168.762 15.9608 169.932 15.9608C171.101 15.9608 172.098 16.3548 172.923 17.1426C173.76 17.9182 174.179 18.8477 174.179 19.931C174.179 21.0266 173.76 21.9684 172.923 22.7563C172.098 23.5318 171.101 23.9196 169.932 23.9196ZM178.588 55.9395V27.5759H186.214V32.5247H186.51C187.027 30.7643 187.895 29.4348 189.114 28.5361C190.332 27.6251 191.736 27.1696 193.324 27.1696C193.718 27.1696 194.142 27.1942 194.598 27.2435C195.053 27.2927 195.454 27.3604 195.798 27.4466V34.4267C195.429 34.3159 194.918 34.2174 194.266 34.1313C193.613 34.0451 193.016 34.002 192.474 34.002C191.317 34.002 190.283 34.2544 189.372 34.7591C188.473 35.2515 187.759 35.9409 187.23 36.8273C186.713 37.7137 186.454 38.7354 186.454 39.8926V55.9395H178.588ZM221.905 35.6639L214.703 36.1071C214.58 35.4916 214.315 34.9376 213.909 34.4452C213.503 33.9405 212.967 33.5404 212.302 33.2449C211.65 32.9371 210.868 32.7833 209.957 32.7833C208.739 32.7833 207.711 33.0418 206.873 33.5588C206.036 34.0636 205.618 34.7406 205.618 35.5901C205.618 36.2672 205.889 36.8396 206.43 37.3074C206.972 37.7752 207.901 38.1507 209.219 38.4338L214.352 39.4679C217.11 40.0342 219.166 40.9452 220.52 42.2009C221.874 43.4566 222.551 45.1062 222.551 47.1497C222.551 49.0086 222.003 50.6398 220.908 52.0432C219.824 53.4466 218.335 54.5423 216.439 55.3301C214.555 56.1057 212.382 56.4935 209.92 56.4935C206.166 56.4935 203.174 55.7118 200.946 54.1483C198.73 52.5726 197.431 50.4305 197.05 47.7222L204.787 47.3159C205.021 48.4608 205.587 49.3349 206.486 49.9381C207.384 50.529 208.535 50.8245 209.939 50.8245C211.318 50.8245 212.426 50.5598 213.263 50.0304C214.112 49.4888 214.543 48.7932 214.555 47.9438C214.543 47.2298 214.241 46.645 213.65 46.1895C213.06 45.7217 212.149 45.3647 210.918 45.1185L206.006 44.1398C203.236 43.5858 201.174 42.6256 199.82 41.2591C198.478 39.8926 197.807 38.1507 197.807 36.0333C197.807 34.2113 198.299 32.6417 199.284 31.3245C200.281 30.0072 201.678 28.9916 203.476 28.2776C205.285 27.5636 207.403 27.2066 209.828 27.2066C213.41 27.2066 216.23 27.9637 218.285 29.4779C220.354 30.9921 221.56 33.0541 221.905 35.6639ZM241.031 27.5759V33.485H223.95V27.5759H241.031ZM227.828 20.7804H235.695V47.2236C235.695 47.9499 235.805 48.5162 236.027 48.9225C236.249 49.3164 236.556 49.5934 236.95 49.7534C237.356 49.9135 237.824 49.9935 238.354 49.9935C238.723 49.9935 239.092 49.9627 239.462 49.9012C239.831 49.8273 240.114 49.7719 240.311 49.735L241.548 55.5887C241.154 55.7118 240.6 55.8533 239.886 56.0134C239.172 56.1857 238.304 56.2904 237.283 56.3273C235.387 56.4012 233.725 56.1488 232.297 55.5702C230.881 54.9916 229.779 54.0929 228.991 52.8742C228.204 51.6554 227.816 50.1166 227.828 48.2577V20.7804Z" fill="black"/>
<path d="M261.922 6.79034L259.266 22.7903H254.922L256.922 10.7903H256.828L252.984 12.8841L253.578 9.19659L257.922 6.79034H261.922Z" fill="#DE4441"/>
</svg>
