<svg width="264" height="69" viewBox="0 0 264 69" fill="none" xmlns="http://www.w3.org/2000/svg">
<path d="M16.6894 56.2824C13.7841 56.2824 11.2851 55.6669 9.19225 54.4358C7.11176 53.1924 5.51138 51.469 4.39111 49.2654C3.28316 47.0618 2.72918 44.5258 2.72918 41.6574C2.72918 38.7521 3.28931 36.2038 4.40958 34.0125C5.54216 31.8089 7.14869 30.0916 9.22918 28.8605C11.3097 27.6172 13.7841 26.9955 16.6525 26.9955C19.1269 26.9955 21.2936 27.4448 23.1525 28.3435C25.0114 29.2422 26.4825 30.504 27.5658 32.129C28.6492 33.754 29.2462 35.6621 29.357 37.8534H21.9337C21.7244 36.4377 21.1705 35.299 20.2718 34.4372C19.3854 33.5632 18.2221 33.1262 16.7817 33.1262C15.563 33.1262 14.4981 33.4585 13.5871 34.1233C12.6885 34.7758 11.9868 35.7298 11.482 36.9855C10.9773 38.2412 10.7249 39.7616 10.7249 41.5466C10.7249 43.3563 10.9711 44.8951 11.4636 46.1631C11.9683 47.4311 12.6762 48.3975 13.5871 49.0622C14.4981 49.727 15.563 50.0594 16.7817 50.0594C17.6804 50.0594 18.4868 49.8747 19.2008 49.5054C19.9271 49.1361 20.5242 48.6006 20.992 47.8989C21.4721 47.1849 21.786 46.3293 21.9337 45.3321H29.357C29.2339 47.4988 28.643 49.4069 27.5843 51.0565C26.5379 52.6939 25.0914 53.9742 23.2448 54.8975C21.3982 55.8208 19.2131 56.2824 16.6894 56.2824ZM40.7001 17.9102V55.7284H32.8336V17.9102H40.7001ZM45.4416 55.7284V27.3648H53.308V55.7284H45.4416ZM49.3933 23.7085C48.2238 23.7085 47.2205 23.3208 46.3833 22.5452C45.5585 21.7573 45.1461 20.8155 45.1461 19.7199C45.1461 18.6366 45.5585 17.7071 46.3833 16.9315C47.2205 16.1437 48.2238 15.7497 49.3933 15.7497C50.5628 15.7497 51.5599 16.1437 52.3848 16.9315C53.2219 17.7071 53.6404 18.6366 53.6404 19.7199C53.6404 20.8155 53.2219 21.7573 52.3848 22.5452C51.5599 23.3208 50.5628 23.7085 49.3933 23.7085ZM70.9757 56.2824C68.0581 56.2824 65.5467 55.6915 63.4416 54.5097C61.3488 53.3155 59.7361 51.629 58.6035 49.45C57.4709 47.2587 56.9046 44.6673 56.9046 41.6759C56.9046 38.7583 57.4709 36.1976 58.6035 33.994C59.7361 31.7905 61.3303 30.0731 63.3862 28.8421C65.4544 27.611 67.8796 26.9955 70.6618 26.9955C72.533 26.9955 74.2749 27.2971 75.8876 27.9003C77.5126 28.4912 78.9283 29.3837 80.1348 30.5779C81.3535 31.772 82.3014 33.2739 82.9785 35.0835C83.6556 36.8809 83.9941 38.986 83.9941 41.3989V43.5594H60.0439V38.6844H76.5893C76.5893 37.5518 76.3431 36.5485 75.8507 35.6744C75.3582 34.8004 74.675 34.1172 73.801 33.6247C72.9392 33.12 71.9359 32.8676 70.791 32.8676C69.5969 32.8676 68.5382 33.1446 67.6149 33.6986C66.7039 34.2403 65.9899 34.9727 65.4728 35.896C64.9558 36.807 64.6911 37.8226 64.6788 38.9429V43.5779C64.6788 44.9813 64.9373 46.1939 65.4544 47.2156C65.9837 48.2374 66.7285 49.0253 67.6887 49.5793C68.649 50.1333 69.7877 50.4102 71.1049 50.4102C71.979 50.4102 72.7792 50.2871 73.5055 50.0409C74.2318 49.7947 74.8535 49.4254 75.3706 48.933C75.8876 48.4405 76.2815 47.8373 76.5524 47.1233L83.8279 47.6034C83.4586 49.3515 82.7015 50.878 81.5566 52.183C80.4241 53.4756 78.9591 54.4851 77.1618 55.2114C75.3767 55.9254 73.3147 56.2824 70.9757 56.2824ZM95.4341 39.3307V55.7284H87.5677V27.3648H95.0648V32.369H95.3972C96.0251 30.7194 97.0776 29.4145 98.5549 28.4543C100.032 27.4817 101.823 26.9955 103.928 26.9955C105.898 26.9955 107.615 27.4263 109.08 28.2881C110.545 29.1498 111.684 30.3809 112.497 31.9813C113.309 33.5693 113.715 35.4652 113.715 37.6688V55.7284H105.849V39.0722C105.861 37.3364 105.418 35.9822 104.519 35.0097C103.621 34.0248 102.383 33.5324 100.808 33.5324C99.749 33.5324 98.8134 33.7601 98.0009 34.2156C97.2007 34.6711 96.5729 35.3359 96.1174 36.21C95.6742 37.0717 95.4465 38.1119 95.4341 39.3307ZM133.442 27.3648V33.2739H116.361V27.3648H133.442ZM120.239 20.5693H128.105V47.0125C128.105 47.7388 128.216 48.3051 128.438 48.7114C128.659 49.1053 128.967 49.3823 129.361 49.5423C129.767 49.7024 130.235 49.7824 130.764 49.7824C131.134 49.7824 131.503 49.7516 131.872 49.6901C132.242 49.6162 132.525 49.5608 132.722 49.5239L133.959 55.3776C133.565 55.5007 133.011 55.6422 132.297 55.8023C131.583 55.9746 130.715 56.0793 129.693 56.1162C127.798 56.1901 126.136 55.9377 124.708 55.3591C123.292 54.7805 122.19 53.8818 121.402 52.6631C120.614 51.4443 120.227 49.9055 120.239 48.0466V20.5693ZM162.734 27.3648V33.2739H145.229V27.3648H162.734ZM149.236 55.7284V25.3151C149.236 23.2592 149.636 21.5542 150.436 20.2C151.248 18.8458 152.356 17.8302 153.76 17.1531C155.163 16.4761 156.757 16.1375 158.542 16.1375C159.749 16.1375 160.851 16.2298 161.848 16.4145C162.857 16.5992 163.608 16.7654 164.101 16.9131L162.697 22.8222C162.39 22.7237 162.008 22.6314 161.552 22.5452C161.109 22.459 160.654 22.4159 160.186 22.4159C159.029 22.4159 158.222 22.6868 157.767 23.2284C157.311 23.7578 157.084 24.5026 157.084 25.4628V55.7284H149.236ZM165.98 55.7284V27.3648H173.846V55.7284H165.98ZM169.932 23.7085C168.762 23.7085 167.759 23.3208 166.922 22.5452C166.097 21.7573 165.685 20.8155 165.685 19.7199C165.685 18.6366 166.097 17.7071 166.922 16.9315C167.759 16.1437 168.762 15.7497 169.932 15.7497C171.101 15.7497 172.098 16.1437 172.923 16.9315C173.76 17.7071 174.179 18.6366 174.179 19.7199C174.179 20.8155 173.76 21.7573 172.923 22.5452C172.098 23.3208 171.101 23.7085 169.932 23.7085ZM178.588 55.7284V27.3648H186.214V32.3137H186.51C187.027 30.5532 187.895 29.2237 189.114 28.325C190.332 27.414 191.736 26.9585 193.324 26.9585C193.718 26.9585 194.142 26.9832 194.598 27.0324C195.053 27.0816 195.454 27.1494 195.798 27.2355V34.2156C195.429 34.1048 194.918 34.0064 194.266 33.9202C193.613 33.834 193.016 33.7909 192.474 33.7909C191.317 33.7909 190.283 34.0433 189.372 34.548C188.473 35.0404 187.759 35.7298 187.23 36.6162C186.713 37.5026 186.454 38.5244 186.454 39.6815V55.7284H178.588ZM221.905 35.4529L214.703 35.896C214.58 35.2805 214.315 34.7265 213.909 34.2341C213.503 33.7294 212.967 33.3293 212.302 33.0338C211.65 32.7261 210.868 32.5722 209.957 32.5722C208.739 32.5722 207.711 32.8307 206.873 33.3477C206.036 33.8525 205.618 34.5296 205.618 35.379C205.618 36.0561 205.889 36.6285 206.43 37.0963C206.972 37.5641 207.901 37.9396 209.219 38.2227L214.352 39.2568C217.11 39.8231 219.166 40.7341 220.52 41.9898C221.874 43.2455 222.551 44.8951 222.551 46.9387C222.551 48.7976 222.003 50.4287 220.908 51.8321C219.824 53.2355 218.335 54.3312 216.439 55.119C214.555 55.8946 212.382 56.2824 209.92 56.2824C206.166 56.2824 203.174 55.5007 200.946 53.9372C198.73 52.3615 197.431 50.2194 197.05 47.5111L204.787 47.1048C205.021 48.2497 205.587 49.1238 206.486 49.727C207.384 50.3179 208.535 50.6134 209.939 50.6134C211.318 50.6134 212.426 50.3487 213.263 49.8193C214.112 49.2777 214.543 48.5821 214.555 47.7327C214.543 47.0187 214.241 46.4339 213.65 45.9784C213.06 45.5106 212.149 45.1536 210.918 44.9074L206.006 43.9287C203.236 43.3747 201.174 42.4145 199.82 41.048C198.478 39.6815 197.807 37.9396 197.807 35.8222C197.807 34.0002 198.299 32.4306 199.284 31.1134C200.281 29.7961 201.678 28.7805 203.476 28.0665C205.285 27.3525 207.403 26.9955 209.828 26.9955C213.41 26.9955 216.23 27.7526 218.285 29.2668C220.354 30.781 221.56 32.843 221.905 35.4529ZM241.031 27.3648V33.2739H223.95V27.3648H241.031ZM227.828 20.5693H235.695V47.0125C235.695 47.7388 235.805 48.3051 236.027 48.7114C236.249 49.1053 236.556 49.3823 236.95 49.5423C237.356 49.7024 237.824 49.7824 238.354 49.7824C238.723 49.7824 239.092 49.7516 239.462 49.6901C239.831 49.6162 240.114 49.5608 240.311 49.5239L241.548 55.3776C241.154 55.5007 240.6 55.6422 239.886 55.8023C239.172 55.9746 238.304 56.0793 237.283 56.1162C235.387 56.1901 233.725 55.9377 232.297 55.3591C230.881 54.7805 229.779 53.8818 228.991 52.6631C228.204 51.4443 227.816 49.9055 227.828 48.0466V20.5693Z" fill="white"/>
<path d="M261.922 6.57925L259.266 22.5793H254.922L256.922 10.5793H256.828L252.984 12.673L253.578 8.9855L257.922 6.57925H261.922Z" fill="#DE4441"/>
</svg>
