<svg width="8" height="8" viewBox="0 0 8 8" fill="none" xmlns="http://www.w3.org/2000/svg">
<g clip-path="url(#clip0_1507_20)">
<path d="M0.493877 7.91563C0.388749 7.91563 0.28362 7.87588 0.204133 7.79511C0.0438767 7.63486 0.0438767 7.3746 0.204133 7.21435L6.51407 0.904924H1.76919C1.54227 0.904924 1.35894 0.721591 1.35894 0.494668C1.35894 0.267745 1.54227 0.0844116 1.76919 0.0844116H7.5051C7.67048 0.0844116 7.82048 0.184412 7.88458 0.338258C7.94869 0.492104 7.91279 0.667745 7.79612 0.785694L0.784902 7.7964C0.704133 7.87588 0.599005 7.91563 0.493877 7.91563Z" fill="black"/>
<path d="M7.50474 6.63057C7.27782 6.63057 7.09448 6.44723 7.09448 6.22031V0.494668C7.09448 0.267745 7.27782 0.0844116 7.50474 0.0844116C7.73166 0.0844116 7.915 0.267745 7.915 0.494668V6.22031C7.915 6.44723 7.73166 6.63057 7.50474 6.63057Z" fill="black"/>
</g>
<defs>
<clipPath id="clip0_1507_20">
<rect width="8" height="8" fill="white"/>
</clipPath>
</defs>
</svg>
