<svg width="154" height="110" viewBox="0 0 154 110" fill="none" xmlns="http://www.w3.org/2000/svg">
<g clip-path="url(#clip0_1519_4)">
<path d="M13.61 126.431C4.9264 116.879 -0.283755 106.459 -0.283755 89.0914C-0.283755 58.6989 21.4252 31.7798 51.8177 17.8861L59.6329 29.1747C30.9771 44.8052 24.8986 64.7774 23.1619 77.8028C27.5037 75.1977 33.5822 74.3293 39.6607 75.1977C55.2912 76.9344 67.4482 89.0914 67.4482 105.59C67.4482 113.405 63.9747 121.221 58.7646 127.299C52.6861 133.378 45.7392 135.983 37.0556 135.983C27.5037 135.983 18.8201 131.641 13.61 126.431ZM100.446 126.431C91.7622 116.879 86.552 106.459 86.552 89.0914C86.552 58.6989 108.261 31.7798 138.653 17.8861L146.469 29.1747C117.813 44.8052 111.734 64.7774 109.998 77.8028C114.339 75.1977 120.418 74.3293 126.496 75.1977C142.127 76.9344 154.284 89.9598 154.284 105.59C154.284 113.405 150.811 121.221 145.6 127.299C139.522 133.378 132.575 135.983 123.891 135.983C114.339 135.983 105.656 131.641 100.446 126.431Z" fill="#DE4441"/>
</g>
<defs>
<clipPath id="clip0_1519_4">
<rect width="154" height="110" fill="white" transform="matrix(-1 0 0 -1 154 110)"/>
</clipPath>
</defs>
</svg>
