<svg width="513" height="513" viewBox="0 0 513 513" fill="none" xmlns="http://www.w3.org/2000/svg">
<g clip-path="url(#clip0_1528_26)">
<path d="M121.5 62.5H231.5C239.784 62.5 246.5 55.784 246.5 47.5V20.5C246.5 9.454 237.546 0.5 226.5 0.5H126.5C115.454 0.5 106.5 9.454 106.5 20.5V47.5C106.5 55.784 113.216 62.5 121.5 62.5Z" fill="#DE4441"/>
<path d="M503.713 461.287L461.286 418.861C449.57 407.145 430.575 407.145 418.859 418.861C407.143 430.577 407.143 449.572 418.859 461.287L461.286 503.714C473.002 515.43 491.997 515.43 503.712 503.714C515.429 491.997 515.429 473.002 503.713 461.287Z" fill="#DE4441"/>
<path d="M405.723 305.723C405.723 250.495 360.952 205.723 305.723 205.723C250.495 205.723 205.723 250.495 205.723 305.723C205.723 360.952 250.495 405.723 305.723 405.723C327.925 405.723 348.435 398.483 365.028 386.241L388.383 409.596C390.898 405.329 393.986 401.308 397.647 397.647C401.274 394.02 405.287 390.921 409.588 388.375L386.241 365.028C398.483 348.435 405.723 327.926 405.723 305.723ZM302.188 344.614C296.33 350.472 286.833 350.472 280.975 344.614L252.69 316.33C246.832 310.472 246.832 300.975 252.69 295.117C258.548 289.259 268.045 289.259 273.903 295.117L291.581 312.795L337.543 266.833C343.401 260.975 352.898 260.975 358.756 266.833C364.614 272.691 364.614 282.188 358.756 288.046L302.188 344.614Z" fill="#DE4441"/>
<path d="M292.28 435.032C292.414 435.837 292.5 436.658 292.5 437.501C292.5 445.785 285.784 452.501 277.5 452.501H75.5C67.216 452.501 60.5 445.785 60.5 437.501C60.5 429.217 67.216 422.501 75.5 422.501H248.64C233.565 415.102 220.124 404.87 209.014 392.501H75.5C67.216 392.501 60.5 385.785 60.5 377.501C60.5 369.217 67.216 362.501 75.5 362.501H188.794C184.2 353.078 180.714 343.022 178.502 332.501H75.5C67.216 332.501 60.5 325.785 60.5 317.501C60.5 309.217 67.216 302.501 75.5 302.501H175.765C176.018 292.159 177.49 282.115 180.033 272.501H75.5C67.216 272.501 60.5 265.785 60.5 257.501C60.5 249.217 67.216 242.501 75.5 242.501H192.169C198.374 231.4 206.158 221.299 215.217 212.501H75.5C67.216 212.501 60.5 205.785 60.5 197.501C60.5 189.217 67.216 182.501 75.5 182.501H264.274C277.298 178.109 291.237 175.725 305.724 175.725C322.206 175.725 337.978 178.815 352.5 184.435V77.5C352.5 52.687 332.313 32.5 307.5 32.5H276.5V47.5C276.5 72.313 256.313 92.5 231.5 92.5H121.5C96.687 92.5 76.5 72.313 76.5 47.5V32.5H45.5C20.687 32.5 0.5 52.687 0.5 77.5V467.5C0.5 492.313 20.687 512.5 45.5 512.5H307.5C332.313 512.5 352.5 492.313 352.5 467.5V427.013C337.978 432.633 322.206 435.723 305.724 435.723C301.185 435.724 296.7 435.488 292.28 435.032ZM75.5 122.5H277.5C285.784 122.5 292.5 129.216 292.5 137.5C292.5 145.784 285.784 152.5 277.5 152.5H75.5C67.216 152.5 60.5 145.784 60.5 137.5C60.5 129.216 67.216 122.5 75.5 122.5Z" fill="#DE4441"/>
</g>
<defs>
<clipPath id="clip0_1528_26">
<rect width="512" height="512" fill="white" transform="translate(0.5 0.5)"/>
</clipPath>
</defs>
</svg>
