<svg width="513" height="513" viewBox="0 0 513 513" fill="none" xmlns="http://www.w3.org/2000/svg">
<g clip-path="url(#clip0_1528_39)">
<path d="M331.059 199.605V228.355C331.059 246.995 346.169 262.105 364.809 262.105H383.08V286.619C383.08 294.899 389.79 301.619 398.07 301.619H398.08C406.37 301.619 413.08 294.909 413.08 286.619V262.105H447.684C476.429 262.105 499.732 238.802 499.732 210.057V166.197C499.732 163.436 497.493 161.197 494.732 161.197H450.119C421.374 161.197 398.071 184.5 398.071 213.245V228.355C398.071 209.715 382.961 194.605 364.321 194.605H336.06C333.298 194.605 331.059 196.843 331.059 199.605Z" fill="#DE4441"/>
<path d="M501.439 323.434C488.112 311.456 467.699 312.114 455.172 324.926L353.413 428.999C323.798 428.999 235.024 428.999 221.729 428.999C215.924 428.999 211.218 424.298 211.218 418.499C211.218 412.7 215.924 407.999 221.729 407.999H316.367C333.234 407.999 346.869 394.095 346.398 377.146C345.943 360.807 332.101 347.999 315.738 347.999C308.731 347.999 236.991 347.999 226.258 347.999C222.688 342.527 200.822 301.996 147.83 301.996C115.187 301.996 82.451 319.074 65.881 351.906C62.983 357.648 61.039 361.5 61.039 361.5H10.51C4.982 361.499 0.5 365.976 0.5 371.499V502.499C0.5 508.022 4.982 512.499 10.51 512.499H256.188H353.151C358.449 512.499 363.531 510.401 367.284 506.665L502.677 371.87C516.249 358.359 515.683 336.236 501.439 323.434Z" fill="#DE4441"/>
<path d="M90.5402 279.971C99.3262 288.757 113.573 288.759 122.36 279.971L163.018 239.313C176.648 225.683 176.648 203.585 163.018 189.955C149.388 176.325 127.29 176.325 113.66 189.955L106.45 197.165L99.2402 189.955C85.6102 176.325 63.5122 176.325 49.8822 189.955C36.2522 203.585 36.2522 225.683 49.8822 239.313L90.5402 279.971Z" fill="#DE4441"/>
<path d="M257.48 0.505C257.352 0.504 257.225 0.501 257.097 0.5C240.494 20.551 228.379 48.874 225.717 83.363H288.998C285.61 41.242 268.529 14.004 257.48 0.505Z" fill="#DE4441"/>
<path d="M353.536 83.3634C348.459 51.1904 327.712 24.1594 299.38 10.3574C308.738 28.6704 316.995 52.9204 319.087 83.3634H353.536Z" fill="#DE4441"/>
<path d="M257.255 196.965C276.855 174.044 286.765 143.66 289.031 113.363H225.682C228.354 150.156 241.084 178.333 257.239 196.965H257.255Z" fill="#DE4441"/>
<path d="M215.54 9.44922C186.228 22.9502 164.655 50.4682 159.464 83.3632H195.631C197.713 52.2602 206.078 27.7782 215.54 9.44922Z" fill="#DE4441"/>
<path d="M299.629 186.985C328.05 173.039 348.791 145.766 353.65 113.363H319.111C317.086 144.448 308.938 168.777 299.629 186.985Z" fill="#DE4441"/>
<path d="M215.296 187.903C205.88 169.679 197.624 145.115 195.606 113.363H159.349C164.317 146.494 185.89 174.26 215.296 187.903Z" fill="#DE4441"/>
</g>
<defs>
<clipPath id="clip0_1528_39">
<rect width="512" height="512" fill="white" transform="translate(0.5 0.5)"/>
</clipPath>
</defs>
</svg>
