<svg width="684" height="684" viewBox="0 0 684 684" fill="none" xmlns="http://www.w3.org/2000/svg">
<g clip-path="url(#clip0_1528_14)">
<path d="M80.5 301.834C80.5 290.782 71.5521 281.834 60.5 281.834H20.5C9.44792 281.834 0.5 290.782 0.5 301.834C0.5 312.891 9.44792 321.834 20.5 321.834H60.5C71.5521 321.834 80.5 312.891 80.5 301.834Z" fill="#DE4441"/>
<path d="M663.167 281.834H623.167C612.114 281.834 603.167 290.782 603.167 301.834C603.167 312.891 612.114 321.834 623.167 321.834H663.167C674.219 321.834 683.166 312.891 683.166 301.834C683.166 290.782 674.219 281.834 663.167 281.834Z" fill="#DE4441"/>
<path d="M109.354 144.51L74.7032 124.51C65.1355 118.979 52.9064 122.26 47.3803 131.833C41.8543 141.406 45.1355 153.63 54.7032 159.156L89.3543 179.156C98.8595 184.645 111.104 181.447 116.677 171.833C122.203 162.26 118.922 150.036 109.354 144.51Z" fill="#DE4441"/>
<path d="M628.964 444.51L594.313 424.51C584.724 419 572.5 422.26 566.99 431.833C561.464 441.406 564.745 453.63 574.313 459.156L608.964 479.156C618.469 484.646 630.714 481.448 636.287 471.833C641.813 462.26 638.531 450.036 628.964 444.51Z" fill="#DE4441"/>
<path d="M184.51 65.1465C190.078 74.7611 202.328 77.959 211.833 72.4694C221.406 66.9382 224.687 54.7142 219.156 45.1465L199.156 10.4955C193.63 0.948604 181.344 -2.33786 171.833 3.17256C162.26 8.6986 158.979 20.9278 164.51 30.4955L184.51 65.1465Z" fill="#DE4441"/>
<path d="M89.3543 424.51L54.7032 444.51C45.1355 450.036 41.8543 462.26 47.3803 471.833C52.9533 481.453 65.198 484.651 74.7032 479.156L109.354 459.156C118.922 453.63 122.203 441.406 116.677 431.833C111.13 422.26 98.8439 419 89.3543 424.51Z" fill="#DE4441"/>
<path d="M594.313 179.156L628.964 159.156C638.531 153.63 641.813 141.406 636.287 131.833C630.74 122.26 618.453 118.979 608.964 124.51L574.313 144.51C564.745 150.036 561.464 162.26 566.99 171.833C572.563 181.452 584.807 184.65 594.313 179.156Z" fill="#DE4441"/>
<path d="M471.833 72.4691C481.338 77.9587 493.588 74.7607 499.156 65.1462L519.156 30.4951C524.687 20.9274 521.406 8.69824 511.833 3.1722C502.281 -2.33301 490.036 0.948242 484.51 10.4951L464.51 45.1462C458.979 54.7139 462.26 66.943 471.833 72.4691Z" fill="#DE4441"/>
<path d="M480.526 131.053C428.865 89.0425 361.172 72.8914 294.703 86.756C208.359 104.746 140.234 175.542 125.193 262.891C112.594 336.053 136.719 410.016 189.703 460.782C217.891 487.751 235.026 523.839 239.755 561.834H321.833V467.891L246.286 354.569L207.693 315.975C199.88 308.162 199.88 295.506 207.693 287.694C215.505 279.881 228.161 279.881 235.974 287.694L261.833 313.553L287.693 287.694C295.505 279.881 308.161 279.881 315.974 287.694L341.833 313.553L367.693 287.694C375.505 279.881 388.161 279.881 395.974 287.694L421.833 313.553L447.693 287.694C455.505 279.881 468.161 279.881 475.974 287.694C483.786 295.506 483.786 308.162 475.974 315.975L437.38 354.569L361.833 467.891V561.834H442.766C445.099 525.902 462.156 490.709 492.615 462.048C536.599 420.626 561.833 362.225 561.833 301.834C561.833 235.308 532.203 173.063 480.526 131.053Z" fill="#DE4441"/>
<path d="M381.833 330.115L355.974 355.975C348.162 363.787 335.505 363.787 327.693 355.975L301.833 330.115L287.568 344.381L341.833 425.782L396.099 344.381L381.833 330.115Z" fill="#DE4441"/>
<path d="M241.833 623.167C241.833 656.251 268.75 683.167 301.833 683.167H381.833C414.917 683.167 441.833 656.251 441.833 623.167V601.834H241.833V623.167Z" fill="#DE4441"/>
</g>
<defs>
<clipPath id="clip0_1528_14">
<rect width="682.667" height="682.667" fill="white" transform="translate(0.5 0.5)"/>
</clipPath>
</defs>
</svg>
