<svg width="513" height="513" viewBox="0 0 513 513" fill="none" xmlns="http://www.w3.org/2000/svg">
<g clip-path="url(#clip0_1528_32)">
<path d="M462.876 186.195L419.74 192.852C450.414 227.127 470.481 271.081 474.734 319.5C474.945 321.907 476.977 323.746 479.394 323.746H507.812C510.552 323.746 512.698 321.404 512.485 318.673C508.639 269.309 490.771 223.819 462.876 186.195Z" fill="#DE4441"/>
<path d="M372.267 152.888L371.333 109.18C336.762 91.8191 297.753 82.0391 256.505 82.0391C197.886 82.0391 143.785 101.79 100.519 134.975L127.439 161.895C163.667 135.387 208.289 119.733 256.505 119.733C298.978 119.733 338.66 131.883 372.267 152.888Z" fill="#DE4441"/>
<path d="M0.515061 318.677C0.302061 321.407 2.45106 323.747 5.18906 323.747H33.6171C36.0371 323.747 38.0651 321.903 38.2761 319.492C43.0201 265.483 67.4461 217.022 104.325 181.376L77.6761 154.727C34.1481 197.031 5.51106 254.589 0.515061 318.677Z" fill="#DE4441"/>
<path d="M256.495 217.674C189.703 217.674 135.361 272.016 135.361 338.808C135.361 405.6 189.703 459.942 256.495 459.942C323.288 459.942 377.629 405.6 377.629 338.808C377.629 272.016 323.288 217.674 256.495 217.674ZM205.758 311.747C197.177 310.872 191.432 303.216 192.243 295.28C192.95 288.36 198.343 282.531 205.758 281.775C212.019 281.13 218.406 284.527 221.141 291.003C225.559 301.469 216.947 312.914 205.758 311.747ZM299.44 368.406C294.49 388.116 276.838 401.883 256.495 401.883C235.464 401.883 218.318 387.382 213.55 368.406C211.532 360.333 216.432 352.15 224.505 350.132C232.568 348.114 240.751 353.014 242.77 361.077C246.209 374.945 266.581 375.533 270.222 361.077C272.249 352.957 280.517 348.107 288.487 350.132C296.559 352.15 301.459 360.333 299.44 368.406ZM320.165 301.134C317.961 308.542 310.248 313.075 302.814 311.526C294.497 309.793 289.328 301.843 290.996 293.814C292.538 285.759 300.613 280.311 308.698 281.996C316.873 283.529 322.85 292.122 320.165 301.134Z" fill="#DE4441"/>
<path d="M503.946 114.064C507.282 110.087 506.765 104.157 502.789 100.821L448.489 55.2586C444.513 51.9216 438.582 52.4436 435.245 56.4206C401.854 96.2136 405.606 91.7436 401.206 96.9826C401.421 107.203 402.073 137.836 402.423 154.297C402.544 159.978 407.638 164.249 413.254 163.381C431.151 160.615 464.98 155.389 469.906 154.628C473.923 149.846 468.697 156.072 503.946 114.064Z" fill="#DE4441"/>
</g>
<defs>
<clipPath id="clip0_1528_32">
<rect width="512" height="512" fill="white" transform="translate(0.5 0.5)"/>
</clipPath>
</defs>
</svg>
